HIERARCHY
ROOT Hips
{
	OFFSET 0.00000 0.00000 0.00000
	CHANNELS 6 Xposition Yposition Zposition Yrotation Zrotation Xrotation 
	JOINT Lumbar
	{
		OFFSET 0 0 0
		CHANNELS 3 Zrotation Xrotation Yrotation
		JOINT Neck
		{
			OFFSET 0.00 0.2701 0.00
			CHANNELS 3 Zrotation Xrotation Yrotation
			End Site
			{
				OFFSET 0.00 0.1379 0.00
			}
		}
		JOINT RightShoulder
		{
			OFFSET 0.0119 0.2289 0.1181
			CHANNELS 3 Zrotation Xrotation Yrotation
			JOINT RightElbow
			{
				OFFSET 0.00 -0.1475 0.00
				CHANNELS 2 Zrotation Yrotation
				JOINT RightWrist
				{
					OFFSET 0.00 -0.1605 0.00
					CHANNELS 2 Zrotation Xrotation
					End Site
					{
						OFFSET 0.0040 -0.1068 0.0006
					}
				}
			}
		}
		JOINT LeftShoulder
		{
			OFFSET 0.0119 0.2289 -0.1181
			CHANNELS 3 Zrotation Xrotation Yrotation
			JOINT LeftElbow
			{
				OFFSET 0.00 -0.1475 0.00
				CHANNELS 2 Zrotation Yrotation
				JOINT LeftWrist
				{
					OFFSET 0.00 -0.1605 0.00
					CHANNELS 2 Zrotation Xrotation
					End Site
					{
						OFFSET 0.0040 -0.1068 -0.0006
					}
				}
			}
		}
	}
	JOINT RightHip
	{
		OFFSET 0.0316 -0.0424 0.0458
		CHANNELS 3 Zrotation Xrotation Yrotation
		JOINT RightKnee
		{
			OFFSET 0.00 -0.2438 0.00
			CHANNELS 1 Zrotation
			JOINT RightAnkle
			{
				OFFSET 0.00 -0.2449 0.00
				CHANNELS 3 Zrotation Xrotation Yrotation
				End Site
				{
					OFFSET 0.1237 -0.0542 0.0051
				}
			}
		}
	}
	JOINT LeftHip
	{
		OFFSET 0.0316 -0.0424 -0.0458
		CHANNELS 3 Zrotation Xrotation Yrotation
		JOINT LeftKnee
		{
			OFFSET 0.00 -0.2438 0.00
			CHANNELS 1 Zrotation
			JOINT LeftAnkle
			{
				OFFSET 0.00 -0.2449 0.00
				CHANNELS 3 Zrotation Xrotation Yrotation
				End Site
				{
					OFFSET 0.1237 -0.0542 -0.0051
				}
			}
		}
	}
}
MOTION
Frames: 25
Frame Time: 0.02
-0.00022 3e-05 -0.00011 -181.23315 -34.1712 -3.26487 42.54376 2.99282 -4.1894 -15.76541 -0.63143 -0.53859 70.17585 -99.05588 64.16942 5.54293 98.99671 9.20253 1.37394 80.78557 97.72881 -64.16718 5.33272 -102.52588 9.48916 -1.97106 39.20928 -0.25942 -4.52798 -22.18686 -6.86633 -3.82007 -2.65043 43.21982 7.28145 2.30976 -27.49003 -6.62122 3.51075 2.45085
-0.00019 2e-05 -0.00012 -181.21338 -34.16026 -3.26677 42.53 2.98538 -4.19601 -15.77029 -0.64105 -0.53873 70.21814 -99.03666 64.16943 5.55467 98.99816 9.20155 1.38404 81.23023 97.70832 -64.16758 5.33231 -102.58788 9.50751 -2.04418 39.1909 -0.32433 -4.86964 -22.19176 -6.85722 -3.79278 -2.63268 43.21653 7.27525 2.27061 -27.4947 -6.61767 3.49514 2.44348
-0.00016 1e-05 -0.00012 -181.1937 -34.1494 -3.26866 42.51631 2.97795 -4.20257 -15.77516 -0.65064 -0.53886 70.26048 -99.01746 64.16943 5.56638 98.99961 9.20054 1.39411 81.67377 97.6879 -64.16798 5.3319 -102.64973 9.52578 -2.11709 39.17265 -0.38902 -5.21015 -22.19666 -6.84813 -3.76556 -2.61498 43.21331 7.26917 2.23192 -27.49936 -6.61413 3.47953 2.4361
-0.00013 -0 -0.00013 -181.17401 -34.1385 -3.27055 42.50259 2.97053 -4.20915 -15.78003 -0.66023 -0.539 70.30266 -98.99829 64.16944 5.57808 99.00106 9.19956 1.40418 82.1171 97.66748 -64.16838 5.33148 -102.71155 9.54407 -2.18998 39.15434 -0.45373 -5.55075 -22.20155 -6.83904 -3.73836 -2.59728 43.21005 7.26301 2.19296 -27.50401 -6.6106 3.46396 2.42875
-9e-05 -1e-05 -0.00013 -181.15422 -34.1275 -3.27243 42.48878 2.96309 -4.2158 -15.78491 -0.66984 -0.53913 70.34477 -98.97909 64.16945 5.58982 99.0025 9.19862 1.41428 82.56144 97.64699 -64.16878 5.33107 -102.7735 9.56244 -2.26307 39.13588 -0.51866 -5.89253 -22.20644 -6.82993 -3.71108 -2.57953 43.20669 7.25671 2.15336 -27.50866 -6.60706 3.4484 2.42141
-6e-05 -2e-05 -0.00014 -181.13476 -34.11693 -3.27435 42.47535 2.9557 -4.22219 -15.78975 -0.6794 -0.53926 70.3876 -98.95989 64.16945 5.60145 99.00397 9.19745 1.4243 83.00326 97.6267 -64.16917 5.33066 -102.83511 9.58049 -2.33561 39.11807 -0.58286 -6.23036 -22.21137 -6.8209 -3.68399 -2.56195 43.20376 7.25108 2.11658 -27.51333 -6.6035 3.43269 2.41396
-3e-05 -3e-05 -0.00015 -181.11467 -34.10552 -3.2762 42.46119 2.94823 -4.22908 -15.79468 -0.68906 -0.5394 70.42887 -98.94073 64.16946 5.61329 99.00537 9.19676 1.43445 83.44969 97.60604 -64.16958 5.33024 -102.89736 9.59917 -2.40916 39.09898 -0.64845 -6.57575 -22.21621 -6.81172 -3.65656 -2.54405 43.19998 7.24414 2.0743 -27.51797 -6.6 3.41729 2.40673
-0 -4e-05 -0.00015 -181.09514 -34.09486 -3.27811 42.44765 2.94082 -4.23552 -15.79951 -0.69862 -0.53953 70.47167 -98.92153 64.16947 5.62494 99.00686 9.19562 1.44449 83.89181 97.58572 -64.16997 5.32983 -102.95901 9.61726 -2.48177 39.08104 -0.71278 -6.91421 -22.22112 -6.80267 -3.62944 -2.52644 43.19697 7.23833 2.03683 -27.52263 -6.59645 3.40163 2.39931
3e-05 -5e-05 -0.00016 -181.07639 -34.0852 -3.2801 42.43507 2.93351 -4.24137 -15.80427 -0.70809 -0.53967 70.51601 -98.90227 64.16948 5.63635 99.00835 9.19394 1.45437 84.32913 97.56583 -64.17036 5.32942 -103.01997 9.63468 -2.55333 39.06462 -0.77549 -7.24413 -22.22618 -6.79377 -3.60271 -2.50919 43.19497 7.2342 2.0063 -27.52732 -6.59283 3.38554 2.39158
6e-05 -6e-05 -0.00016 -181.05343 -34.07007 -3.28165 42.41758 2.92573 -4.25049 -15.80959 -0.71817 -0.53979 70.55051 -98.8833 64.16948 5.64913 99.00954 9.19542 1.4651 84.7955 97.5435 -64.1708 5.32897 -103.08505 9.65611 -2.63124 39.03981 -0.84729 -7.623 -22.23055 -6.784 -3.57375 -2.48987 43.18738 7.2213 1.93906 -27.53184 -6.58955 3.37158 2.38542
0.0001 -7e-05 -0.00017 -181.03918 -34.06627 -3.28412 42.41006 2.91886 -4.2528 -15.81365 -0.72689 -0.53994 70.60637 -98.86376 64.16949 5.65901 99.01155 9.19017 1.4741 85.19959 97.52627 -64.17113 5.32862 -103.14132 9.66898 -2.69555 39.03246 -0.90004 -7.89872 -22.23628 -6.77609 -3.54952 -2.47492 43.19145 7.22633 1.94717 -27.53675 -6.58559 3.35335 2.3761
0.00015 -7e-05 -0.00016 -181.05041 -34.09583 -3.28914 42.43352 2.91518 -4.2354 -15.81482 -0.73246 -0.54019 70.7161 -98.84232 64.16949 5.6609 99.01428 9.1668 1.47778 85.43983 97.52344 -64.1712 5.32856 -103.17421 9.65913 -2.72402 39.0757 -0.899 -7.88779 -22.24646 -6.77316 -3.53809 -2.47206 43.22886 7.28583 2.18171 -27.5425 -6.57939 3.32151 2.35672
0.00021 -7e-05 -0.00015 -181.07011 -34.13641 -3.29507 42.46637 2.91232 -4.21135 -15.81462 -0.73657 -0.54047 70.84771 -98.82036 64.16949 5.65994 99.01807 9.13666 1.47979 85.61651 97.52563 -64.17116 5.32859 -103.19812 9.64062 -2.73864 39.13603 -0.87916 -7.77413 -22.25786 -6.77212 -3.53145 -2.47356 43.27777 7.36233 2.48841 -27.54868 -6.57258 3.28573 2.33441
0.00027 -7e-05 -0.00014 -181.08485 -34.17045 -3.30056 42.49255 2.90864 -4.19101 -15.81468 -0.74094 -0.54073 70.97297 -98.79882 64.1695 5.66024 99.02245 9.10935 1.48301 85.81731 97.5253 -64.17117 5.32858 -103.22556 9.6255 -2.75857 39.18671 -0.8688 -7.70966 -22.26821 -6.77028 -3.52276 -2.47303 43.32047 7.4276 2.74908 -27.55479 -6.5663 3.25301 2.31435
0.00032 -7e-05 -0.00014 -181.10419 -34.21083 -3.30619 42.52876 2.90678 -4.16778 -15.81626 -0.74697 -0.541 71.08495 -98.77647 64.1695 5.66047 99.02257 9.08289 1.48453 86.03692 97.52611 -64.17117 5.32858 -103.25521 9.6124 -2.78236 39.24517 -0.85416 -7.63376 -22.28062 -6.76819 -3.51358 -2.47278 43.36718 7.50773 3.06521 -27.56035 -6.55894 3.21495 2.29047
0.00039 -7e-05 -0.00011 -181.11611 -34.24082 -3.31172 42.54645 2.90137 -4.14894 -15.81438 -0.74927 -0.54125 71.22749 -98.75572 64.1695 5.66045 99.03152 9.05329 1.48896 86.20374 97.52558 -64.17117 5.32858 -103.27825 9.59339 -2.79515 39.29175 -0.84432 -7.55811 -22.28907 -6.76707 -3.50649 -2.47293 43.40847 7.56092 3.28363 -27.56716 -6.55367 3.18704 2.27379
0.00051 -7e-05 0 -181.10401 -34.23727 -3.31695 42.50908 2.88554 -4.14442 -15.80291 -0.74072 -0.54143 71.4686 -98.73919 64.1695 5.65789 99.06717 9.01468 1.50367 86.22783 97.52131 -64.17117 5.32858 -103.28416 9.5572 -2.77825 39.29842 -0.8497 -7.50221 -22.286 -6.76814 -3.50457 -2.47354 43.42976 7.53574 3.20822 -27.57738 -6.55441 3.18861 2.27823
0.00066 -7e-05 0.00015 -181.08441 -34.22307 -3.32204 42.45281 2.86618 -4.14449 -15.7881 -0.72861 -0.54158 71.73611 -98.7243 64.1695 5.65564 99.11123 8.9735 1.52105 86.20317 97.51529 -64.17117 5.32858 -103.28392 9.51586 -2.7512 39.29283 -0.86109 -7.45148 -22.27892 -6.77013 -3.50446 -2.47432 43.44534 7.48283 3.03322 -27.5888 -6.55725 3.20045 2.28993
0.0008 -6e-05 0.00029 -181.0692 -34.21546 -3.32707 42.40653 2.8487 -4.14207 -15.77501 -0.71878 -0.54173 71.97866 -98.7089 64.1695 5.65487 99.14976 8.93483 1.53598 86.20926 97.5093 -64.17117 5.32859 -103.28724 9.47894 -2.73071 39.29513 -0.87144 -7.40219 -22.27393 -6.77171 -3.50318 -2.47476 43.46532 7.44247 2.90786 -27.59966 -6.55904 3.20726 2.29799
0.00093 -6e-05 0.00039 -181.05017 -34.20174 -3.33258 42.35558 2.83009 -4.14097 -15.76088 -0.70623 -0.54189 72.27649 -98.69263 64.1695 5.64711 99.19545 8.89036 1.55597 86.17756 97.50674 -64.17118 5.32858 -103.28712 9.43321 -2.70187 39.28933 -0.87386 -7.33254 -22.26802 -6.7733 -3.50361 -2.47651 43.47916 7.40288 2.7662 -27.61071 -6.56121 3.21544 2.3074
0.00108 -6e-05 0.00058 -181.03715 -34.19692 -3.33715 42.30859 2.813 -4.13847 -15.74831 -0.69832 -0.54205 72.46542 -98.67842 64.16951 5.6541 99.22829 8.85734 1.56618 86.21294 97.49652 -64.17116 5.32859 -103.2927 9.40437 -2.68776 39.29586 -0.89462 -7.30883 -22.26286 -6.77505 -3.50073 -2.47545 43.5029 7.35496 2.63431 -27.6215 -6.56308 3.22327 2.31576
0.00126 -4e-05 0.00096 -181.0432 -34.22978 -3.33812 42.28771 2.80064 -4.12955 -15.7395 -0.70579 -0.54219 72.34542 -98.67059 64.16952 5.70107 99.22309 8.85756 1.54812 86.4527 97.46592 -64.1711 5.32864 -103.31648 9.42642 -2.72058 39.3522 -0.96319 -7.40222 -22.26235 -6.77715 -3.48924 -2.46706 43.56782 7.28994 2.54982 -27.63265 -6.56371 3.22762 2.31948
0.00146 -1e-05 0.00143 -181.05548 -34.27037 -3.33836 42.26989 2.78998 -4.1193 -15.7326 -0.71772 -0.54234 72.11557 -98.66454 64.16955 5.76299 99.20478 8.86922 1.52029 86.76016 97.42758 -64.17101 5.32869 -103.34597 9.46512 -2.76793 39.41944 -1.05026 -7.54322 -22.26249 -6.77937 -3.4742 -2.45575 43.64101 7.21755 2.47899 -27.6433 -6.56395 3.23129 2.3219
0.00165 1e-05 0.00187 -181.0643 -34.29992 -3.33956 42.24314 2.77876 -4.11071 -15.72573 -0.72649 -0.5425 71.93654 -98.65697 64.16957 5.81853 99.19282 8.87504 1.49734 87.03278 97.39254 -64.17094 5.32874 -103.37239 9.49426 -2.8063 39.47251 -1.12992 -7.66927 -22.26119 -6.78143 -3.46007 -2.44539 43.70151 7.14905 2.4041 -27.65321 -6.5643 3.23531 2.32493
0.00185 3e-05 0.00228 -181.07511 -34.3591 -3.33798 42.24576 2.76653 -4.09808 -15.71504 -0.73993 -0.54258 71.75293 -98.65254 64.1696 5.8724 99.17946 8.88355 1.47255 87.32269 97.35837 -64.17084 5.3288 -103.40103 9.5316 -2.85448 39.56182 -1.20587 -7.76955 -22.26431 -6.78391 -3.44879 -2.43649 43.79742 7.07738 2.31662 -27.66703 -6.56502 3.2395 2.32814
